<svg xmlns="http://www.w3.org/2000/svg" viewBox="0 0 64 64" width="64" height="64" role="img" aria-label="Tech Rig"><rect width="64" height="64" rx="14" fill="#0E2233"/><g transform="translate(32,32) scale(0.4) translate(-59.6,34.9)"><path fill="#FFFFFF" d="M36.5 -59V0H23.5V-59H2.5V-69.8H57.5V-59ZM81.1 0H68V-69.8H94.5Q104.7 -69.8 110.1 -64Q115.5 -58.2 115.5 -48.2Q115.5 -40.5 112 -35.2Q108.4 -30 101.8 -28.6L116.7 0H102.3L89 -27.1H81.1ZM91.8 -37.3Q97.1 -37.3 99.4 -39.5Q101.7 -41.6 101.7 -46.3V-50.1Q101.7 -54.8 99.4 -57Q97.1 -59.1 91.8 -59.1H81.1V-37.3Z"/></g><rect x="46" y="46" width="9" height="9" rx="2" fill="#E89A3C"/></svg>