<svg xmlns="http://www.w3.org/2000/svg" viewBox="0 0 563.0 85.8" width="563.0" height="85.8" role="img" aria-label="Tech Rig"><path fill="#FFFFFF" d="M44.5 18.8V77.8H31.5V18.8H10.5V8H65.5V18.8ZM81.3 77.8V8H125.4V18.8H94.4V37H124.3V47.8H94.4V67H125.4V77.8ZM169.8 79Q156.1 79 149.6 69.6Q143 60.2 143 42.9Q143 25.7 149.6 16.2Q156.1 6.8 169.8 6.8Q175 6.8 178.9 8.2Q182.9 9.6 185.8 12Q188.7 14.5 190.6 17.9Q192.5 21.4 193.6 25.5L181.6 28.9Q180.9 26.5 180 24.4Q179.1 22.3 177.8 20.7Q176.4 19.2 174.4 18.3Q172.4 17.5 169.6 17.5Q162.8 17.5 159.9 22.7Q156.9 27.9 156.9 36.9V48.9Q156.9 57.9 159.9 63.1Q162.8 68.3 169.6 68.3Q172.4 68.3 174.4 67.4Q176.4 66.6 177.8 65Q179.1 63.5 180 61.4Q180.9 59.3 181.6 56.9L193.6 60.3Q192.5 64.4 190.6 67.8Q188.7 71.3 185.8 73.8Q182.9 76.2 178.9 77.6Q175 79 169.8 79ZM243.2 47.8H222.8V77.8H209.7V8H222.8V37H243.2V8H256.3V77.8H243.2ZM386.1 77.8H373V8H399.5Q409.7 8 415.1 13.8Q420.5 19.6 420.5 29.6Q420.5 37.3 416.9 42.5Q413.4 47.8 406.8 49.2L421.7 77.8H407.3L394 50.7H386.1ZM396.8 40.5Q402.1 40.5 404.4 38.3Q406.7 36.2 406.7 31.5V27.7Q406.7 23 404.4 20.8Q402.1 18.7 396.8 18.7H386.1V40.5ZM437.8 77.8V68H453.5V17.8H437.8V8H482.2V17.8H466.5V68H482.2V77.8ZM537.1 68.1H536.3Q535.4 70.2 534.1 72.2Q532.8 74.2 530.9 75.7Q529 77.2 526.5 78.1Q523.9 79 520.6 79Q510 79 504.6 69.7Q499.1 60.3 499.1 43.4Q499.1 25.6 505.5 16.2Q511.9 6.8 525.2 6.8Q530.4 6.8 534.3 8.2Q538.3 9.6 541.1 12.1Q544 14.6 545.9 18Q547.7 21.5 548.8 25.5L536.8 28.9Q536.1 26.7 535.2 24.6Q534.4 22.5 533 20.9Q531.7 19.4 529.8 18.4Q527.9 17.5 525.1 17.5Q518.6 17.5 515.8 22.7Q513 27.9 513 36.9V48.1Q513 52.6 513.6 56.3Q514.3 60.1 515.8 62.8Q517.3 65.5 519.7 66.9Q522.1 68.4 525.7 68.4Q531.3 68.4 534.2 65Q537.1 61.7 537.1 56.5V50.8H524.4V41.3H548.8V77.8H537.1Z"/><rect x="297.0" y="17.9" width="34.0" height="34.0" rx="2" fill="#E89A3C"/></svg>